<svg xmlns="http://www.w3.org/2000/svg" width="935" height="170" viewBox="45 428 935 170">
<g>
<path d="M 0.00 0.00 L 1024.00 0.00 L 1024.00 1024.00 L 0.00 1024.00 ZM 109.00 590.48 C124.60,593.67 145.55,591.24 159.22,584.66 C190.73,569.50 208.49,536.82 204.15,502.01 C203.46,496.52 202.09,489.66 201.09,486.76 C192.18,460.87 171.21,440.86 146.88,435.02 C135.30,432.25 116.58,432.26 105.50,435.04 C77.05,442.20 54.96,463.60 47.88,490.86 C45.24,501.02 45.07,522.33 47.55,532.50 C54.44,560.78 79.54,584.47 109.00,590.48 ZM 144.64 581.44 C128.19,586.19 108.72,584.43 93.66,576.83 C74.81,567.32 62.23,552.38 55.86,531.96 C52.51,521.25 52.51,502.75 55.86,492.04 C63.31,468.15 80.14,450.95 103.50,443.35 C110.35,441.12 113.30,440.74 124.00,440.71 C138.48,440.67 148.10,442.83 158.95,448.56 C192.75,466.38 206.38,507.58 190.05,542.50 C180.87,562.12 165.29,575.48 144.64,581.44 ZM 674.20 567.17 C678.17,568.58 681.46,568.96 687.31,568.69 C694.07,568.37 696.19,567.78 703.01,564.30 L 710.90 560.27 L 712.90 566.00 L 735.22 566.00 L 734.53 562.25 C734.15,560.19 733.52,546.35 733.13,531.50 C732.69,515.16 731.96,503.46 731.27,501.86 C729.53,497.82 724.10,492.09 720.09,490.06 C708.90,484.40 685.54,484.65 673.89,490.56 C666.00,494.55 660.16,503.99 661.16,511.10 C661.49,513.45 661.73,513.51 672.75,513.78 C683.46,514.05 684.00,513.97 684.00,512.05 C684.00,508.34 689.03,504.04 694.17,503.37 C703.97,502.07 709.19,505.13 707.65,511.25 C706.83,514.53 703.76,515.72 688.85,518.53 C665.06,523.01 656.98,529.66 657.02,544.71 C657.04,555.63 662.74,563.08 674.20,567.17 ZM 577.67 565.33 C578.03,565.70 583.61,566.00 590.07,566.00 L 601.80 566.00 L 602.15 540.75 C602.47,517.49 602.66,515.23 604.54,512.03 C608.43,505.41 618.81,504.12 622.65,509.78 C624.30,512.20 624.55,515.39 625.00,539.00 L 625.50 565.50 L 650.50 565.50 L 650.78 541.00 C651.15,508.58 649.64,499.54 642.85,493.37 C637.87,488.85 633.93,487.60 624.50,487.55 C613.32,487.49 610.96,488.14 605.97,492.64 L 602.00 496.23 L 602.00 459.00 L 577.00 459.00 L 577.00 511.83 C577.00,540.89 577.30,564.97 577.67,565.33 ZM 918.33 567.21 C922.17,568.58 925.51,568.96 931.31,568.69 C938.09,568.37 940.19,567.78 947.11,564.25 L 955.08 560.17 L 955.67 563.12 L 956.26 566.06 L 967.38 565.78 L 978.50 565.50 L 978.18 562.50 C978.00,560.85 977.55,547.12 977.18,532.00 C976.55,506.44 976.35,504.22 974.34,500.50 C968.80,490.24 959.22,485.98 941.70,486.01 C921.54,486.05 909.42,492.91 905.84,506.32 C903.88,513.63 904.40,514.00 916.48,514.00 L 927.02 514.00 L 928.59 510.08 C930.52,505.25 934.76,503.00 941.95,503.00 C946.08,503.00 947.58,503.48 949.55,505.45 C952.26,508.17 952.49,509.22 950.98,512.04 C949.39,515.01 947.03,515.86 932.94,518.51 C908.25,523.16 900.42,529.91 901.15,545.90 C901.43,551.88 901.99,554.19 903.82,556.75 C907.06,561.29 912.26,565.04 918.33,567.21 ZM 845.37 567.51 C864.89,571.75 885.87,566.98 892.75,556.73 C895.74,552.28 897.33,543.44 896.12,538.05 C893.70,527.29 886.13,522.09 866.00,517.38 C859.67,515.90 853.53,514.06 852.35,513.30 C846.58,509.55 850.50,503.00 858.52,503.00 C864.68,503.00 866.81,504.33 869.14,509.59 L 871.09 514.00 L 882.55 514.00 C891.68,514.00 894.00,513.72 894.00,512.61 C894.00,511.84 893.07,508.21 891.94,504.54 C887.89,491.44 881.05,487.13 863.00,486.30 C838.64,485.18 825.15,492.51 823.33,507.84 C822.43,515.43 823.64,519.65 828.06,524.45 C833.32,530.16 842.19,534.07 852.14,535.07 C864.22,536.29 871.53,540.25 870.83,545.19 C869.61,553.77 846.00,551.85 846.00,543.18 L 846.00 540.50 L 820.78 540.50 L 821.34 545.18 C822.72,556.85 830.77,564.33 845.37,567.51 ZM 741.70 565.36 C742.08,565.75 747.82,565.93 754.45,565.78 L 766.50 565.50 L 767.00 539.50 C767.55,510.94 767.78,509.83 773.55,507.42 C781.36,504.15 787.84,507.33 789.88,515.43 C790.55,518.08 791.00,529.22 791.00,542.97 L 791.00 566.06 L 803.25 565.78 L 815.50 565.50 L 815.50 538.00 C815.50,514.48 815.24,509.67 813.72,504.75 C810.43,494.09 802.91,488.30 791.11,487.31 C782.76,486.61 774.41,488.82 769.65,493.00 C765.93,496.27 765.00,496.04 765.00,491.83 L 765.00 489.00 L 741.00 489.00 L 741.00 526.83 C741.00,547.64 741.31,564.98 741.70,565.36 ZM 405.18 566.10 C414.56,569.34 424.80,568.04 433.08,562.57 C435.21,561.16 437.19,560.00 437.48,560.00 C437.77,560.00 438.00,561.36 438.00,563.03 L 438.00 566.07 L 449.25 565.78 L 460.50 565.50 L 460.76 527.25 L 461.02 489.00 L 436.00 489.00 L 435.98 513.25 C435.96,534.91 435.75,537.95 434.06,541.68 C429.76,551.15 418.36,551.35 414.62,542.02 C413.28,538.66 413.00,533.74 413.00,513.48 L 413.00 489.00 L 387.89 489.00 L 388.20 518.75 C388.49,547.90 388.55,548.59 390.90,553.20 C394.22,559.70 398.91,563.93 405.18,566.10 ZM 311.68 565.35 C312.05,565.72 328.14,565.91 347.43,565.76 L 382.50 565.50 L 382.78 555.25 L 383.07 545.00 L 338.00 545.00 L 338.00 459.00 L 311.00 459.00 L 311.00 511.83 C311.00,540.89 311.31,564.97 311.68,565.35 ZM 476.93 565.28 C476.97,565.71 482.51,565.94 489.25,565.78 L 501.50 565.50 L 501.76 535.75 L 502.03 506.00 L 517.00 506.00 L 517.00 489.00 L 509.50 489.00 C502.13,489.00 502.00,488.96 502.00,486.45 C502.00,480.25 506.32,476.41 514.00,475.79 L 517.50 475.50 L 517.79 467.25 L 518.08 459.00 L 506.79 459.01 C497.01,459.02 494.83,459.34 490.50,461.38 C481.89,465.45 477.00,472.94 477.00,482.04 C477.00,488.27 476.36,489.00 470.89,489.00 L 466.00 489.00 L 466.00 506.00 L 470.89 506.00 C475.35,506.00 475.84,506.23 476.45,508.66 C476.82,510.12 477.06,523.29 476.99,537.91 C476.93,552.53 476.90,564.85 476.93,565.28 ZM 544.56 564.52 C547.27,565.50 552.08,565.87 560.00,565.72 L 571.50 565.50 L 572.08 548.17 L 565.51 547.46 C560.25,546.90 558.71,546.34 557.80,544.63 C557.12,543.36 556.47,535.14 556.19,524.25 L 555.73 506.00 L 571.00 506.00 L 571.00 489.00 L 556.00 489.00 L 556.00 465.00 L 531.00 465.00 L 531.00 489.00 L 520.00 489.00 L 520.00 506.00 L 531.00 506.00 L 531.07 526.75 C531.16,549.68 531.28,550.99 533.85,555.94 C535.97,560.02 539.16,562.58 544.56,564.52 ZM 163.50 546.27 C166.01,546.75 167.88,545.84 170.79,542.74 L 173.07 540.29 L 166.29 540.11 C154.01,539.77 144.22,536.22 134.75,528.66 C132.69,527.01 131.00,525.35 131.00,524.95 C131.00,524.05 140.69,520.52 148.64,518.53 C152.10,517.67 159.13,517.00 164.69,517.00 C174.12,517.00 177.00,516.23 177.00,513.70 C177.00,513.19 170.70,513.11 162.00,513.53 C152.26,514.00 147.00,513.91 147.00,513.26 C147.00,511.82 154.63,511.00 167.98,511.00 C178.42,511.00 179.89,510.78 181.50,509.00 C183.30,507.01 183.25,507.00 166.65,507.00 C156.22,507.00 150.00,506.63 150.00,506.00 C150.00,505.37 156.48,505.00 167.44,505.00 C183.80,505.00 187.72,504.39 185.52,502.18 C185.14,501.81 177.67,501.34 168.92,501.15 C155.37,500.84 153.00,500.56 153.00,499.24 C153.00,497.88 155.11,497.78 170.81,498.38 C187.57,499.03 188.73,498.96 190.36,497.16 C192.05,495.29 191.88,495.23 183.79,494.56 C172.81,493.65 156.51,493.62 144.81,494.50 L 135.32 495.21 L 134.18 498.36 C131.01,507.11 120.96,513.97 111.29,513.99 C105.94,514.00 98.15,511.48 92.20,507.81 C87.01,504.61 89.03,504.67 97.59,507.97 C106.47,511.39 107.00,511.49 107.00,509.75 C106.99,508.51 75.43,495.00 72.52,495.00 C71.69,495.00 71.00,495.71 71.00,496.58 C71.00,497.85 70.37,498.01 67.75,497.38 C62.11,496.04 58.58,496.34 58.21,498.19 C57.96,499.45 58.98,500.18 62.19,501.04 C66.60,502.21 88.72,512.93 95.65,517.25 C109.68,526.00 131.95,536.24 149.14,541.85 C155.94,544.07 162.40,546.06 163.50,546.27 ZM 945.74 548.63 C941.50,550.83 933.14,551.34 929.40,549.63 C921.30,545.95 924.79,536.67 935.30,533.97 C937.61,533.38 941.82,532.24 944.65,531.45 C953.23,529.04 953.36,529.11 952.75,535.87 C952.14,542.56 950.02,546.42 945.74,548.63 ZM 702.29 548.28 C699.00,550.18 689.69,551.44 687.00,550.35 C684.05,549.16 681.00,545.61 681.00,543.38 C681.00,538.89 684.92,536.04 695.38,532.94 C708.89,528.92 709.00,528.93 709.00,534.75 C709.00,540.73 706.44,545.89 702.29,548.28 Z" fill="transparent"/>
<path d="M 109.00 590.48 C79.54,584.47 54.44,560.78 47.55,532.50 C45.07,522.33 45.24,501.02 47.88,490.86 C54.96,463.60 77.05,442.20 105.50,435.04 C116.58,432.26 135.30,432.25 146.88,435.02 C171.21,440.86 192.18,460.87 201.09,486.76 C202.09,489.66 203.46,496.52 204.15,502.01 C208.49,536.82 190.73,569.50 159.22,584.66 C145.55,591.24 124.60,593.67 109.00,590.48 ZM 144.64 581.44 C165.29,575.48 180.87,562.12 190.05,542.50 C206.38,507.58 192.75,466.38 158.95,448.56 C148.10,442.83 138.48,440.67 124.00,440.71 C113.30,440.74 110.35,441.12 103.50,443.35 C80.14,450.95 63.31,468.15 55.86,492.04 C52.51,502.75 52.51,521.25 55.86,531.96 C62.23,552.38 74.81,567.32 93.66,576.83 C108.72,584.43 128.19,586.19 144.64,581.44 ZM 674.20 567.17 C662.74,563.08 657.04,555.63 657.02,544.71 C656.98,529.66 665.06,523.01 688.85,518.53 C703.76,515.72 706.83,514.53 707.65,511.25 C709.19,505.13 703.97,502.07 694.17,503.37 C689.03,504.04 684.00,508.34 684.00,512.05 C684.00,513.97 683.46,514.05 672.75,513.78 C661.73,513.51 661.49,513.45 661.16,511.10 C660.16,503.99 666.00,494.55 673.89,490.56 C685.54,484.65 708.90,484.40 720.09,490.06 C724.10,492.09 729.53,497.82 731.27,501.86 C731.96,503.46 732.69,515.16 733.13,531.50 C733.52,546.35 734.15,560.19 734.53,562.25 L 735.22 566.00 L 724.06 566.00 L 712.90 566.00 L 711.90 563.13 L 710.90 560.27 L 703.01 564.30 C696.19,567.78 694.07,568.37 687.31,568.69 C681.46,568.96 678.17,568.58 674.20,567.17 ZM 702.29 548.28 C706.44,545.89 709.00,540.73 709.00,534.75 C709.00,528.93 708.89,528.92 695.38,532.94 C684.92,536.04 681.00,538.89 681.00,543.38 C681.00,545.61 684.05,549.16 687.00,550.35 C689.69,551.44 699.00,550.18 702.29,548.28 ZM 845.37 567.51 C830.77,564.33 822.72,556.85 821.34,545.18 L 820.78 540.50 L 833.39 540.50 L 846.00 540.50 L 846.00 543.18 C846.00,551.85 869.61,553.77 870.83,545.19 C871.53,540.25 864.22,536.29 852.14,535.07 C842.19,534.07 833.32,530.16 828.06,524.45 C823.64,519.65 822.43,515.43 823.33,507.84 C825.15,492.51 838.64,485.18 863.00,486.30 C881.05,487.13 887.89,491.44 891.94,504.54 C893.07,508.21 894.00,511.84 894.00,512.61 C894.00,513.72 891.68,514.00 882.55,514.00 L 871.09 514.00 L 869.14 509.59 C866.81,504.33 864.68,503.00 858.52,503.00 C850.50,503.00 846.58,509.55 852.35,513.30 C853.53,514.06 859.67,515.90 866.00,517.38 C886.13,522.09 893.70,527.29 896.12,538.05 C897.33,543.44 895.74,552.28 892.75,556.73 C885.87,566.98 864.89,571.75 845.37,567.51 ZM 918.33 567.21 C912.26,565.04 907.06,561.29 903.82,556.75 C901.99,554.19 901.43,551.88 901.15,545.90 C900.42,529.91 908.25,523.16 932.94,518.51 C947.03,515.86 949.39,515.01 950.98,512.04 C952.49,509.22 952.26,508.17 949.55,505.45 C947.58,503.48 946.08,503.00 941.95,503.00 C934.76,503.00 930.52,505.25 928.59,510.08 L 927.02 514.00 L 916.48 514.00 C904.40,514.00 903.88,513.63 905.84,506.32 C909.42,492.91 921.54,486.05 941.70,486.01 C959.22,485.98 968.80,490.24 974.34,500.50 C976.35,504.22 976.55,506.44 977.18,532.00 C977.55,547.12 978.00,560.85 978.18,562.50 L 978.50 565.50 L 967.38 565.78 L 956.26 566.06 L 955.67 563.12 L 955.08 560.17 L 947.11 564.25 C940.19,567.78 938.09,568.37 931.31,568.69 C925.51,568.96 922.17,568.58 918.33,567.21 ZM 945.74 548.63 C950.02,546.42 952.14,542.56 952.75,535.87 C953.36,529.11 953.23,529.04 944.65,531.45 C941.82,532.24 937.61,533.38 935.30,533.97 C924.79,536.67 921.30,545.95 929.40,549.63 C933.14,551.34 941.50,550.83 945.74,548.63 ZM 405.18 566.10 C398.91,563.93 394.22,559.70 390.90,553.20 C388.55,548.59 388.49,547.90 388.20,518.75 L 387.89 489.00 L 400.45 489.00 L 413.00 489.00 L 413.00 513.48 C413.00,533.74 413.28,538.66 414.62,542.02 C418.36,551.35 429.76,551.15 434.06,541.68 C435.75,537.95 435.96,534.91 435.98,513.25 L 436.00 489.00 L 448.51 489.00 L 461.02 489.00 L 460.76 527.25 L 460.50 565.50 L 449.25 565.78 L 438.00 566.07 L 438.00 563.03 C438.00,561.36 437.77,560.00 437.48,560.00 C437.19,560.00 435.21,561.16 433.08,562.57 C424.80,568.04 414.56,569.34 405.18,566.10 ZM 311.68 565.35 C311.31,564.97 311.00,540.89 311.00,511.83 L 311.00 459.00 L 324.50 459.00 L 338.00 459.00 L 338.00 502.00 L 338.00 545.00 L 360.53 545.00 L 383.07 545.00 L 382.78 555.25 L 382.50 565.50 L 347.43 565.76 C328.14,565.91 312.05,565.72 311.68,565.35 ZM 476.93 565.28 C476.90,564.85 476.93,552.53 476.99,537.91 C477.06,523.29 476.82,510.12 476.45,508.66 C475.84,506.23 475.35,506.00 470.89,506.00 L 466.00 506.00 L 466.00 497.50 L 466.00 489.00 L 470.89 489.00 C476.36,489.00 477.00,488.27 477.00,482.04 C477.00,472.94 481.89,465.45 490.50,461.38 C494.83,459.34 497.01,459.02 506.79,459.01 L 518.08 459.00 L 517.79 467.25 L 517.50 475.50 L 514.00 475.79 C506.32,476.41 502.00,480.25 502.00,486.45 C502.00,488.96 502.13,489.00 509.50,489.00 L 517.00 489.00 L 517.00 497.50 L 517.00 506.00 L 509.51 506.00 L 502.03 506.00 L 501.76 535.75 L 501.50 565.50 L 489.25 565.78 C482.51,565.94 476.97,565.71 476.93,565.28 ZM 544.56 564.52 C539.16,562.58 535.97,560.02 533.85,555.94 C531.28,550.99 531.16,549.68 531.07,526.75 L 531.00 506.00 L 525.50 506.00 L 520.00 506.00 L 520.00 497.50 L 520.00 489.00 L 525.50 489.00 L 531.00 489.00 L 531.00 477.00 L 531.00 465.00 L 543.50 465.00 L 556.00 465.00 L 556.00 477.00 L 556.00 489.00 L 563.50 489.00 L 571.00 489.00 L 571.00 497.50 L 571.00 506.00 L 563.37 506.00 L 555.73 506.00 L 556.19 524.25 C556.47,535.14 557.12,543.36 557.80,544.63 C558.71,546.34 560.25,546.90 565.51,547.46 L 572.08 548.17 L 571.79 556.83 L 571.50 565.50 L 560.00 565.72 C552.08,565.87 547.27,565.50 544.56,564.52 ZM 577.67 565.33 C577.30,564.97 577.00,540.89 577.00,511.83 L 577.00 459.00 L 589.50 459.00 L 602.00 459.00 L 602.00 477.62 L 602.00 496.23 L 605.97 492.64 C610.96,488.14 613.32,487.49 624.50,487.55 C633.93,487.60 637.87,488.85 642.85,493.37 C649.64,499.54 651.15,508.58 650.78,541.00 L 650.50 565.50 L 638.00 565.50 L 625.50 565.50 L 625.00 539.00 C624.55,515.39 624.30,512.20 622.65,509.78 C618.81,504.12 608.43,505.41 604.54,512.03 C602.66,515.23 602.47,517.49 602.15,540.75 L 601.80 566.00 L 590.07 566.00 C583.61,566.00 578.03,565.70 577.67,565.33 ZM 741.70 565.36 C741.31,564.98 741.00,547.64 741.00,526.83 L 741.00 489.00 L 753.00 489.00 L 765.00 489.00 L 765.00 491.83 C765.00,496.04 765.93,496.27 769.65,493.00 C774.41,488.82 782.76,486.61 791.11,487.31 C802.91,488.30 810.43,494.09 813.72,504.75 C815.24,509.67 815.50,514.48 815.50,538.00 L 815.50 565.50 L 803.25 565.78 L 791.00 566.06 L 791.00 542.97 C791.00,529.22 790.55,518.08 789.88,515.43 C787.84,507.33 781.36,504.15 773.55,507.42 C767.78,509.83 767.55,510.94 767.00,539.50 L 766.50 565.50 L 754.45 565.78 C747.82,565.93 742.08,565.75 741.70,565.36 ZM 163.50 546.27 C162.40,546.06 155.94,544.07 149.14,541.85 C131.95,536.24 109.68,526.00 95.65,517.25 C88.72,512.93 66.60,502.21 62.19,501.04 C58.98,500.18 57.96,499.45 58.21,498.19 C58.58,496.34 62.11,496.04 67.75,497.38 C70.37,498.01 71.00,497.85 71.00,496.58 C71.00,495.71 71.69,495.00 72.52,495.00 C75.43,495.00 106.99,508.51 107.00,509.75 C107.00,511.49 106.47,511.39 97.59,507.97 C89.03,504.67 87.01,504.61 92.20,507.81 C98.15,511.48 105.94,514.00 111.29,513.99 C120.96,513.97 131.01,507.11 134.18,498.36 L 135.32 495.21 L 144.81 494.50 C156.51,493.62 172.81,493.65 183.79,494.56 C191.88,495.23 192.05,495.29 190.36,497.16 C188.73,498.96 187.57,499.03 170.81,498.38 C155.11,497.78 153.00,497.88 153.00,499.24 C153.00,500.56 155.37,500.84 168.92,501.15 C177.67,501.34 185.14,501.81 185.52,502.18 C187.72,504.39 183.80,505.00 167.44,505.00 C156.48,505.00 150.00,505.37 150.00,506.00 C150.00,506.63 156.22,507.00 166.65,507.00 C183.25,507.00 183.30,507.01 181.50,509.00 C179.89,510.78 178.42,511.00 167.98,511.00 C154.63,511.00 147.00,511.82 147.00,513.26 C147.00,513.91 152.26,514.00 162.00,513.53 C170.70,513.11 177.00,513.19 177.00,513.70 C177.00,516.23 174.12,517.00 164.69,517.00 C159.13,517.00 152.10,517.67 148.64,518.53 C140.69,520.52 131.00,524.05 131.00,524.95 C131.00,525.35 132.69,527.01 134.75,528.66 C144.22,536.22 154.01,539.77 166.29,540.11 L 173.07 540.29 L 170.79 542.74 C167.88,545.84 166.01,546.75 163.50,546.27 Z" fill="rgb(253,253,253)"/>
</g>
</svg>