<svg xmlns="http://www.w3.org/2000/svg" width="870" height="155" viewBox="118 190 870 160">
<g>
<path d="M 0.00 0.00 L 1106.00 0.00 L 1106.00 540.00 L 0.00 540.00 ZM 162.00 310.66 C187.78,318.33 216.39,306.95 228.26,284.30 C233.53,274.25 235.33,266.40 235.31,253.50 C235.30,244.37 234.86,241.14 232.69,234.50 C225.63,212.91 209.65,199.57 187.21,196.52 L 181.92 195.80 L 182.21 204.55 L 182.50 213.30 L 188.75 215.01 C205.18,219.50 215.30,232.71 216.72,251.50 C218.03,268.89 209.22,284.83 194.50,291.70 C189.18,294.18 187.36,294.50 178.48,294.50 C169.19,294.50 167.97,294.26 161.86,291.25 C149.13,284.98 141.19,272.66 140.26,257.71 C138.91,236.02 150.21,219.62 170.00,214.53 L 174.50 213.37 L 174.79 204.59 L 175.08 195.80 L 169.79 196.50 C146.59,199.58 128.51,215.95 122.87,239.00 C120.92,246.96 121.20,264.14 123.39,271.50 C126.22,281.00 131.56,290.13 138.10,296.70 C145.18,303.80 151.64,307.57 162.00,310.66 ZM 855.39 269.56 C863.99,271.60 876.51,268.90 883.65,263.46 C889.27,259.17 894.51,251.72 896.35,245.39 C897.30,242.15 898.40,238.38 898.81,237.00 L 899.55 234.50 L 936.27 234.24 L 973.00 233.98 L 973.00 241.02 C973.00,249.26 971.11,254.54 967.59,256.14 C962.63,258.40 957.00,251.69 957.00,243.53 L 957.00 240.00 L 944.28 240.00 L 943.67 245.13 C942.62,253.99 938.32,258.25 933.12,255.56 C929.85,253.87 928.00,249.63 928.00,243.85 L 928.00 240.00 L 913.81 240.00 L 914.48 245.25 C916.05,257.76 920.65,265.83 927.71,268.53 C934.27,271.03 939.92,270.71 945.84,267.49 L 950.79 264.79 L 955.48 267.54 C967.15,274.38 980.37,268.41 984.58,254.39 C985.53,251.24 986.00,244.76 986.00,234.84 L 986.00 220.00 L 942.57 220.00 C914.23,220.00 898.15,220.37 896.32,221.07 C890.54,223.25 885.98,229.61 884.55,237.45 C882.84,246.87 877.40,252.96 868.35,255.59 C861.71,257.52 855.82,256.44 849.94,252.21 C840.92,245.73 837.41,232.90 842.09,223.54 C845.03,217.66 850.70,212.46 855.68,211.07 C864.68,208.57 871.82,210.47 878.69,217.20 L 882.89 221.31 L 886.69 218.12 C888.79,216.36 891.07,214.47 891.76,213.91 C893.31,212.66 889.69,207.52 884.42,203.50 C865.19,188.84 836.40,197.58 828.67,220.43 C826.26,227.54 826.46,239.49 829.11,246.56 C833.32,257.80 843.53,266.75 855.39,269.56 ZM 245.00 234.00 L 245.00 345.00 L 262.00 345.00 L 262.00 304.16 C262.00,263.33 262.00,263.31 264.33,258.91 C268.88,250.28 282.10,245.50 291.03,249.24 C300.62,253.26 304.94,260.36 304.98,272.14 C305.01,282.30 301.70,289.06 294.53,293.48 C290.39,296.04 288.65,296.50 283.03,296.50 C278.41,296.50 275.60,295.97 273.74,294.75 C269.41,291.91 269.00,292.44 269.00,300.85 L 269.00 308.70 L 273.22 310.60 C276.32,311.99 279.74,312.50 286.00,312.50 C293.63,312.50 295.26,312.15 301.17,309.24 C309.02,305.37 314.18,300.00 318.07,291.62 C323.98,278.89 323.91,264.59 317.85,252.13 C311.70,239.47 301.68,232.86 287.60,232.16 C278.28,231.70 273.95,232.82 267.07,237.45 L 262.00 240.86 L 262.00 234.00 ZM 523.14 311.91 C524.99,312.48 529.94,312.80 534.14,312.64 C547.87,312.11 559.07,304.41 565.33,291.20 C568.34,284.83 568.50,283.91 568.50,272.50 C568.50,262.24 568.16,259.66 566.17,254.72 C563.04,246.97 554.65,237.97 547.76,234.96 C540.39,231.75 527.94,231.10 521.06,233.58 L 516.00 235.40 L 516.00 251.93 L 520.58 249.96 C528.73,246.47 538.97,247.88 544.87,253.30 C551.56,259.45 554.11,273.93 550.13,283.17 C545.22,294.56 533.07,299.78 522.43,295.07 C516.49,292.45 513.42,289.71 510.90,284.79 C509.12,281.32 509.00,278.40 509.00,239.54 L 509.00 198.00 L 491.98 198.00 L 492.50 310.50 L 509.00 311.08 L 509.00 307.54 C509.00,304.11 510.21,302.91 511.53,305.04 C512.55,306.70 519.47,310.79 523.14,311.91 ZM 601.50 311.26 C607.54,313.43 619.52,313.15 625.25,310.70 L 629.00 309.10 L 629.00 301.05 C629.00,296.62 628.62,293.00 628.15,293.00 C627.69,293.00 625.78,293.79 623.90,294.75 C619.46,297.03 609.64,297.01 605.29,294.69 C588.33,285.69 588.14,258.77 604.98,250.25 C614.41,245.48 626.51,248.41 632.50,256.91 L 635.50 261.17 L 635.81 286.08 L 636.13 311.00 L 653.00 311.00 L 653.00 234.00 L 644.50 234.00 C635.65,234.00 635.33,234.17 635.93,238.75 C636.16,240.53 635.78,240.39 630.09,236.56 C624.26,232.64 618.89,231.52 609.14,232.22 C600.52,232.84 594.30,235.66 587.62,241.97 C579.01,250.12 574.06,263.91 575.41,276.00 C576.05,281.71 578.81,291.76 580.23,293.50 C580.67,294.05 582.35,296.37 583.96,298.66 C587.46,303.64 594.63,308.79 601.50,311.26 ZM 745.90 310.25 C745.95,310.66 749.60,311.00 754.00,311.00 L 762.00 311.00 L 762.00 278.88 L 765.69 279.19 C769.17,279.48 770.06,280.39 781.44,295.25 L 793.50 311.00 L 803.25 311.00 C810.57,311.00 813.00,310.68 813.00,309.70 C813.00,308.99 809.27,303.70 804.72,297.95 C800.16,292.20 793.39,283.54 789.66,278.70 L 782.88 269.89 L 791.69 259.77 C809.04,239.84 813.00,235.17 813.00,234.59 C813.00,234.26 808.46,234.00 802.91,234.00 C794.14,234.00 792.60,234.25 791.16,235.95 C790.25,237.02 784.78,243.55 779.00,250.45 C769.51,261.79 768.19,263.00 765.25,263.00 L 762.00 263.00 L 762.00 198.00 L 746.00 198.00 L 745.86 251.25 C745.71,304.97 745.72,308.89 745.90,310.25 ZM 355.29 311.55 C363.93,314.25 378.02,313.02 388.00,308.70 C392.40,306.79 397.00,303.21 397.00,301.70 C397.00,300.12 390.71,291.00 389.62,291.00 C389.14,291.00 385.83,292.44 382.26,294.19 C373.02,298.74 365.85,299.14 358.43,295.51 C351.80,292.27 347.71,287.13 345.97,279.86 C343.69,270.37 346.62,257.45 352.20,252.34 C358.21,246.84 367.45,245.36 374.02,248.85 C378.32,251.14 382.69,257.27 383.56,262.25 L 384.22 266.00 L 351.90 266.00 L 352.20 272.25 L 352.50 278.50 L 400.50 278.50 L 400.79 271.29 C401.52,253.40 392.00,237.91 377.57,233.51 C374.86,232.68 369.36,232.00 365.36,232.00 C348.56,232.00 335.76,241.37 330.89,257.23 C328.09,266.31 328.54,281.79 331.84,290.15 C335.75,300.06 344.72,308.25 355.29,311.55 ZM 664.00 234.00 L 664.00 311.00 L 681.00 311.00 L 681.02 286.75 C681.04,265.37 681.26,262.03 682.88,258.50 C685.07,253.74 687.30,251.61 692.25,249.54 C699.05,246.70 707.17,247.86 711.53,252.29 C716.29,257.13 716.47,258.22 717.00,285.00 L 717.50 310.50 L 725.82 310.79 L 734.14 311.08 L 733.82 282.29 C733.52,255.56 733.35,253.18 731.41,249.00 C728.40,242.53 724.47,238.29 718.62,235.20 C714.05,232.79 712.43,232.50 703.50,232.50 C694.70,232.50 692.96,232.80 689.01,235.00 C686.54,236.38 683.74,238.40 682.79,239.50 C681.11,241.45 681.07,241.41 681.03,237.75 L 681.00 234.00 ZM 411.00 234.00 L 411.00 311.00 L 427.00 311.00 L 427.00 289.55 C427.00,277.63 427.49,265.80 428.11,262.93 C430.08,253.75 437.47,248.00 447.30,248.00 C451.94,248.00 454.84,249.17 458.37,252.45 C463.23,256.98 464.00,261.78 464.00,287.66 L 464.00 311.00 L 471.98 311.00 C479.67,311.00 479.99,310.91 480.59,308.49 C481.63,304.34 480.36,255.85 479.10,251.82 C477.06,245.31 471.89,238.89 466.07,235.63 C461.47,233.07 459.30,232.53 452.01,232.19 C444.76,231.84 442.59,232.12 438.30,233.97 C435.49,235.17 432.17,237.25 430.92,238.58 C428.44,241.22 426.82,241.71 427.07,239.75 C427.79,234.22 427.48,234.00 419.00,234.00 Z" fill="transparent"/>
<path d="M 245.00 289.50 L 245.00 234.00 L 253.50 234.00 L 262.00 234.00 L 262.00 237.43 L 262.00 240.86 L 267.07 237.45 C273.95,232.82 278.28,231.70 287.60,232.16 C301.68,232.86 311.70,239.47 317.85,252.13 C323.91,264.59 323.98,278.89 318.07,291.62 C314.18,300.00 309.02,305.37 301.17,309.24 C295.26,312.15 293.63,312.50 286.00,312.50 C279.74,312.50 276.32,311.99 273.22,310.60 L 269.00 308.70 L 269.00 300.85 C269.00,292.44 269.41,291.91 273.74,294.75 C275.60,295.97 278.41,296.50 283.03,296.50 C288.65,296.50 290.39,296.04 294.53,293.48 C301.70,289.06 305.01,282.30 304.98,272.14 C304.94,260.36 300.62,253.26 291.03,249.24 C282.10,245.50 268.88,250.28 264.33,258.91 C262.00,263.31 262.00,263.33 262.00,304.16 L 262.00 345.00 L 253.50 345.00 L 245.00 345.00 L 245.00 289.50 ZM 162.00 310.66 C151.64,307.57 145.18,303.80 138.10,296.70 C131.56,290.13 126.22,281.00 123.39,271.50 C121.20,264.14 120.92,246.96 122.87,239.00 C128.51,215.95 146.59,199.58 169.79,196.50 L 175.08 195.80 L 174.79 204.59 L 174.50 213.37 L 170.00 214.53 C150.21,219.62 138.91,236.02 140.26,257.71 C141.19,272.66 149.13,284.98 161.86,291.25 C167.97,294.26 169.19,294.50 178.48,294.50 C187.36,294.50 189.18,294.18 194.50,291.70 C209.22,284.83 218.03,268.89 216.72,251.50 C215.30,232.71 205.18,219.50 188.75,215.01 L 182.50 213.30 L 182.21 204.55 L 181.92 195.80 L 187.21 196.52 C209.65,199.57 225.63,212.91 232.69,234.50 C234.86,241.14 235.30,244.37 235.31,253.50 C235.33,266.40 233.53,274.25 228.26,284.30 C216.39,306.95 187.78,318.33 162.00,310.66 ZM 355.29 311.55 C344.72,308.25 335.75,300.06 331.84,290.15 C328.54,281.79 328.09,266.31 330.89,257.23 C335.76,241.37 348.56,232.00 365.36,232.00 C369.36,232.00 374.86,232.68 377.57,233.51 C392.00,237.91 401.52,253.40 400.79,271.29 L 400.50 278.50 L 376.50 278.50 L 352.50 278.50 L 352.20 272.25 L 351.90 266.00 L 368.06 266.00 L 384.22 266.00 L 383.56 262.25 C382.69,257.27 378.32,251.14 374.02,248.85 C367.45,245.36 358.21,246.84 352.20,252.34 C346.62,257.45 343.69,270.37 345.97,279.86 C347.71,287.13 351.80,292.27 358.43,295.51 C365.85,299.14 373.02,298.74 382.26,294.19 C385.83,292.44 389.14,291.00 389.62,291.00 C390.71,291.00 397.00,300.12 397.00,301.70 C397.00,303.21 392.40,306.79 388.00,308.70 C378.02,313.02 363.93,314.25 355.29,311.55 ZM 523.14 311.91 C519.47,310.79 512.55,306.70 511.53,305.04 C510.21,302.91 509.00,304.11 509.00,307.54 L 509.00 311.08 L 500.75 310.79 L 492.50 310.50 L 492.24 254.25 L 491.98 198.00 L 500.49 198.00 L 509.00 198.00 L 509.00 239.54 C509.00,278.40 509.12,281.32 510.90,284.79 C513.42,289.71 516.49,292.45 522.43,295.07 C533.07,299.78 545.22,294.56 550.13,283.17 C554.11,273.93 551.56,259.45 544.87,253.30 C538.97,247.88 528.73,246.47 520.58,249.96 L 516.00 251.93 L 516.00 243.66 L 516.00 235.40 L 521.06 233.58 C527.94,231.10 540.39,231.75 547.76,234.96 C554.65,237.97 563.04,246.97 566.17,254.72 C568.16,259.66 568.50,262.24 568.50,272.50 C568.50,283.91 568.34,284.83 565.33,291.20 C559.07,304.41 547.87,312.11 534.14,312.64 C529.94,312.80 524.99,312.48 523.14,311.91 ZM 601.50 311.26 C594.63,308.79 587.46,303.64 583.96,298.66 C582.35,296.37 580.67,294.05 580.23,293.50 C578.81,291.76 576.05,281.71 575.41,276.00 C574.06,263.91 579.01,250.12 587.62,241.97 C594.30,235.66 600.52,232.84 609.14,232.22 C618.89,231.52 624.26,232.64 630.09,236.56 C635.78,240.39 636.16,240.53 635.93,238.75 C635.33,234.17 635.65,234.00 644.50,234.00 L 653.00 234.00 L 653.00 272.50 L 653.00 311.00 L 644.56 311.00 L 636.13 311.00 L 635.81 286.08 L 635.50 261.17 L 632.50 256.91 C626.51,248.41 614.41,245.48 604.98,250.25 C588.14,258.77 588.33,285.69 605.29,294.69 C609.64,297.01 619.46,297.03 623.90,294.75 C625.78,293.79 627.69,293.00 628.15,293.00 C628.62,293.00 629.00,296.62 629.00,301.05 L 629.00 309.10 L 625.25 310.70 C619.52,313.15 607.54,313.43 601.50,311.26 ZM 411.00 272.50 L 411.00 234.00 L 419.00 234.00 C427.48,234.00 427.79,234.22 427.07,239.75 C426.82,241.71 428.44,241.22 430.92,238.58 C432.17,237.25 435.49,235.17 438.30,233.97 C442.59,232.12 444.76,231.84 452.01,232.19 C459.30,232.53 461.47,233.07 466.07,235.63 C471.89,238.89 477.06,245.31 479.10,251.82 C480.36,255.85 481.63,304.34 480.59,308.49 C479.99,310.91 479.67,311.00 471.98,311.00 L 464.00 311.00 L 464.00 287.66 C464.00,261.78 463.23,256.98 458.37,252.45 C454.84,249.17 451.94,248.00 447.30,248.00 C437.47,248.00 430.08,253.75 428.11,262.93 C427.49,265.80 427.00,277.63 427.00,289.55 L 427.00 311.00 L 419.00 311.00 L 411.00 311.00 L 411.00 272.50 ZM 664.00 272.50 L 664.00 234.00 L 672.50 234.00 L 681.00 234.00 L 681.03 237.75 C681.07,241.41 681.11,241.45 682.79,239.50 C683.74,238.40 686.54,236.38 689.01,235.00 C692.96,232.80 694.70,232.50 703.50,232.50 C712.43,232.50 714.05,232.79 718.62,235.20 C724.47,238.29 728.40,242.53 731.41,249.00 C733.35,253.18 733.52,255.56 733.82,282.29 L 734.14 311.08 L 725.82 310.79 L 717.50 310.50 L 717.00 285.00 C716.47,258.22 716.29,257.13 711.53,252.29 C707.17,247.86 699.05,246.70 692.25,249.54 C687.30,251.61 685.07,253.74 682.88,258.50 C681.26,262.03 681.04,265.37 681.02,286.75 L 681.00 311.00 L 672.50 311.00 L 664.00 311.00 L 664.00 272.50 ZM 745.90 310.25 C745.72,308.89 745.71,304.97 745.86,251.25 L 746.00 198.00 L 754.00 198.00 L 762.00 198.00 L 762.00 230.50 L 762.00 263.00 L 765.25 263.00 C768.19,263.00 769.51,261.79 779.00,250.45 C784.78,243.55 790.25,237.02 791.16,235.95 C792.60,234.25 794.14,234.00 802.91,234.00 C808.46,234.00 813.00,234.26 813.00,234.59 C813.00,235.17 809.04,239.84 791.69,259.77 L 782.88 269.89 L 789.66 278.70 C793.39,283.54 800.16,292.20 804.72,297.95 C809.27,303.70 813.00,308.99 813.00,309.70 C813.00,310.68 810.57,311.00 803.25,311.00 L 793.50 311.00 L 781.44 295.25 C770.06,280.39 769.17,279.48 765.69,279.19 L 762.00 278.88 L 762.00 294.94 L 762.00 311.00 L 754.00 311.00 C749.60,311.00 745.95,310.66 745.90,310.25 ZM 855.39 269.56 C843.53,266.75 833.32,257.80 829.11,246.56 C826.46,239.49 826.26,227.54 828.67,220.43 C836.40,197.58 865.19,188.84 884.42,203.50 C889.69,207.52 893.31,212.66 891.76,213.91 C891.07,214.47 888.79,216.36 886.69,218.12 L 882.89 221.31 L 878.69 217.20 C871.82,210.47 864.68,208.57 855.68,211.07 C850.70,212.46 845.03,217.66 842.09,223.54 C837.41,232.90 840.92,245.73 849.94,252.21 C855.82,256.44 861.71,257.52 868.35,255.59 C877.40,252.96 882.84,246.87 884.55,237.45 C885.98,229.61 890.54,223.25 896.32,221.07 C898.15,220.37 914.23,220.00 942.57,220.00 L 986.00 220.00 L 986.00 234.84 C986.00,244.76 985.53,251.24 984.58,254.39 C980.37,268.41 967.15,274.38 955.48,267.54 L 950.79 264.79 L 945.84 267.49 C939.92,270.71 934.27,271.03 927.71,268.53 C920.65,265.83 916.05,257.76 914.48,245.25 L 913.81 240.00 L 920.91 240.00 L 928.00 240.00 L 928.00 243.85 C928.00,249.63 929.85,253.87 933.12,255.56 C938.32,258.25 942.62,253.99 943.67,245.13 L 944.28 240.00 L 950.64 240.00 L 957.00 240.00 L 957.00 243.53 C957.00,251.69 962.63,258.40 967.59,256.14 C971.11,254.54 973.00,249.26 973.00,241.02 L 973.00 233.98 L 936.27 234.24 L 899.55 234.50 L 898.81 237.00 C898.40,238.38 897.30,242.15 896.35,245.39 C894.51,251.72 889.27,259.17 883.65,263.46 C876.51,268.90 863.99,271.60 855.39,269.56 Z" fill="rgb(253,253,253)"/>
</g>
</svg>